<?xml version="1.0" encoding="UTF-8"?>
<svg width="15px" height="13px" viewBox="0 0 15 13" version="1.1" xmlns="http://www.w3.org/2000/svg" xmlns:xlink="http://www.w3.org/1999/xlink">
    <g id="g1" stroke="none" stroke-width="1" fill="none" fill-rule="evenodd">
        <g id="g2" transform="translate(-808.000000, -4702.000000)" fill="#83c4ff">
            <g id="g3" transform="translate(588.000000, 4680.000000)">
                <path d="M234.997699,28.227717 C235.000767,28.2570889 235.000767,28.2868992 234.997699,28.3162711 C234.994631,28.3395056 234.991124,28.3644936 234.988056,28.3886049 C234.984549,28.4184151 234.982796,28.4442799 234.974906,28.4723367 C234.968331,28.4968863 234.960003,28.5201208 234.955181,28.5429169 C234.9451,28.5722887 234.938525,28.602099 234.925375,28.6284022 C234.922307,28.6367315 234.922307,28.646376 234.9188,28.6511983 C234.912226,28.667857 234.902582,28.6823237 234.896008,28.6954753 C234.884611,28.7217785 234.872776,28.7480817 234.858312,28.7761384 C234.843409,28.7958658 234.827191,28.8217306 234.814041,28.8449651 C234.799138,28.8611854 234.784235,28.8874886 234.768017,28.9054624 C234.751361,28.9304504 234.732074,28.9532465 234.708843,28.976481 C234.702268,28.9856871 234.690872,28.9992771 234.68079,29.0089216 L229.545823,34.1463717 C229.329291,34.3594275 229.050517,34.4650786 228.771304,34.4650786 C228.489024,34.4650786 228.207181,34.3594275 227.993717,34.1463717 C227.56679,33.7176298 227.56679,33.0236641 227.993717,32.5936071 L231.256164,29.3311356 L221.098002,29.3311356 C220.79249,29.3311356 220.516784,29.2092642 220.32173,29.0089216 C220.123169,28.8103326 220,28.5363411 220,28.2342928 C220,28.0063319 220.07057,27.7963448 220.188918,27.6187984 C220.385725,27.3281482 220.720605,27.1365733 221.098002,27.1365733 L231.256164,27.1365733 L227.993717,23.8749786 C227.56679,23.4453599 227.56679,22.7527094 227.993717,22.322214 C228.42196,21.8925953 229.116265,21.8925953 229.545823,22.322214 L234.677722,27.4596641 C234.690872,27.469747 234.698762,27.4793915 234.70709,27.4907895 C234.732074,27.514024 234.751361,27.5385736 234.771085,27.5644384 C234.784235,27.5810971 234.799138,27.6008245 234.810534,27.6205519 C234.827191,27.643348 234.846915,27.6700896 234.860065,27.6959544 C234.869708,27.7191888 234.882858,27.7419849 234.892501,27.7617123 C234.900829,27.7810013 234.912226,27.7963448 234.9188,27.81125 C234.922307,27.8239632 234.922307,27.8353612 234.927129,27.8436906 C234.938525,27.8651715 234.943347,27.888406 234.95036,27.9125172 C234.960003,27.9423275 234.968331,27.9716994 234.976221,28.0010713 C234.982796,28.0207987 234.982796,28.0440332 234.986302,28.0672676 C234.991124,28.0931324 234.997699,28.1264498 234.997699,28.1588904 C235.000767,28.1821249 234.997699,28.204921 234.997699,28.227717" id="cta-button-arrow"></path>
            </g>
        </g>
    </g>
</svg>