<?xml version="1.0" encoding="UTF-8"?>
<svg width="14px" height="15px" viewBox="0 0 14 15" version="1.1" xmlns="http://www.w3.org/2000/svg" xmlns:xlink="http://www.w3.org/1999/xlink">
    <g id="home" stroke="none" stroke-width="1" fill="none" fill-rule="evenodd">
        <g id="Fluid---Desktop-Design-3" transform="translate(-782.000000, -7312.000000)" fill="#FFFFFF">
            <g id="Group-26" transform="translate(-1961.000000, 4753.000000)">
                <g id="footer-full" transform="translate(0.000000, 1241.000000)">
                    <g id="icon-linkedin-footer" transform="translate(2743.000000, 1318.000000)">
                        <path d="M13.8944444,14.9153657 L10.9130222,14.9153657 L10.9130222,8.76593073 C10.9130222,8.47626085 10.6123111,8.00288892 10.4015111,7.88848765 C10.1219556,7.73595262 9.4616,7.72348582 9.16051111,7.86392071 L7.9316,8.43739375 L7.9316,14.9153657 L4.95017778,14.9153657 L4.95017778,4.78718652 L7.9316,4.78718652 L7.9316,5.23159146 C9.11253333,4.70871899 10.7494444,4.75968622 11.8593556,5.36432627 C13.0384,6.00526673 13.8944444,7.4367493 13.8944444,8.76593073 L13.8944444,14.9153657 Z" id="Path"></path>
                        <path d="M0.105555556,1.89342104 C0.105555556,0.89460994 0.938177778,0.0850009445 1.96913333,0.0850009445 C2.99933333,0.0850009445 3.83233333,0.89460994 3.83233333,1.89342104 C3.83233333,2.89259881 2.99933333,3.7022078 1.96913333,3.7022078 C0.938177778,3.7022078 0.105555556,2.89259881 0.105555556,1.89342104 Z" id="Path"></path>
                        <polygon id="Path" points="0.478044444 14.9153657 3.45946667 14.9153657 3.45946667 4.78718652 0.478044444 4.78718652"></polygon>
                    </g>
                </g>
            </g>
        </g>
    </g>
</svg>