<?xml version="1.0" encoding="UTF-8"?>
<svg width="17px" height="13px" viewBox="0 0 17 13" version="1.1" xmlns="http://www.w3.org/2000/svg" xmlns:xlink="http://www.w3.org/1999/xlink">
    <g id="home" stroke="none" stroke-width="1" fill="none" fill-rule="evenodd">
        <g id="Fluid---Desktop-Design-3" transform="translate(-736.000000, -7313.000000)" fill="#FFFFFF">
            <g id="Group-26" transform="translate(-1961.000000, 4753.000000)">
                <g id="footer-full" transform="translate(0.000000, 1241.000000)">
                    <path d="M2701.16453,1325.3416 C2701.43073,1325.06257 2701.7259,1324.9313 2702.2946,1324.89427 C2701.04793,1324.5991 2700.58813,1323.98677 2700.44807,1323.2417 C2700.79237,1323.15847 2701.2265,1323.08807 2701.4619,1323.11887 C2700.37107,1322.5465 2699.99193,1321.68263 2700.05133,1321.03547 C2702.00237,1321.7633 2703.24573,1322.34813 2704.28413,1322.9073 C2704.65447,1323.10677 2705.0688,1323.46463 2705.53483,1323.91747 C2706.12737,1322.3408 2706.86107,1320.71683 2708.11543,1319.91017 C2708.09527,1320.0935 2707.9992,1320.26217 2707.87013,1320.40223 C2708.22727,1320.07737 2708.6878,1319.85333 2709.15897,1319.78843 C2709.10433,1320.143 2708.59613,1320.34283 2708.28923,1320.45907 C2708.52207,1320.3861 2709.75663,1319.83317 2709.89303,1320.14777 C2710.05143,1320.50747 2709.0398,1320.67247 2708.8693,1320.73297 C2708.73767,1320.7777 2708.61117,1320.8261 2708.48503,1320.87707 C2710.05033,1320.72087 2711.54633,1322.0185 2711.98267,1323.6311 C2712.01383,1323.74623 2712.04463,1323.8753 2712.07177,1324.0106 C2712.6456,1324.22363 2713.6829,1323.99887 2714.01803,1323.79207 C2713.77493,1324.367 2713.14793,1324.79013 2712.22027,1324.86677 C2712.66687,1325.05267 2713.50983,1325.1568 2714.0899,1325.0589 C2713.72287,1325.45307 2713.13033,1325.8124 2712.11907,1325.80507 C2710.7756,1331.2838 2701.7446,1333.60883 2697.5899,1327.92073 C2699.18123,1329.44533 2701.9525,1329.57917 2703.70883,1327.7561 C2702.67923,1327.90607 2701.92793,1326.89077 2703.19477,1326.34297 C2702.05663,1326.4669 2701.4223,1325.8597 2701.16453,1325.3416 Z" id="icon-twiiter-footer"></path>
                </g>
            </g>
        </g>
    </g>
</svg>