<?xml version="1.0" encoding="UTF-8"?>
<svg width="24px" height="24px" viewBox="0 0 24 24" version="1.1" xmlns="http://www.w3.org/2000/svg" xmlns:xlink="http://www.w3.org/1999/xlink">
    <g id="g1" stroke="none" stroke-width="1" fill="none" fill-rule="evenodd">
        <g id="g2" transform="translate(-1356.000000, -76.000000)" fill="#FFFFFF" fill-rule="nonzero">
            <g id="g3" transform="translate(-279.000000, -123.000000)">
                <g id="g4" transform="translate(1083.000000, 174.000000)">
                    <path d="M561.958715,25 C556.481422,25 552,29.4710482 552,34.9483417 C552,40.4256352 556.481422,44.9070574 561.958715,44.9070574 C564.064569,44.9070574 566.014817,44.2327692 567.622735,43.1124139 L573.006665,48.4859707 C573.691327,49.1810061 574.811683,49.1810061 575.496344,48.4859707 C576.181006,47.8013089 576.181006,46.6913272 575.496344,46.0066654 L570.112414,40.622735 C571.243143,39.0044437 571.907057,37.0541953 571.907057,34.9483417 C571.907057,29.4710482 567.425635,25 561.958715,25 Z M561.958715,28.5062978 C565.527255,28.5062978 568.390386,31.3694284 568.390386,34.9483417 C568.390386,38.5272553 565.527255,41.3903859 561.958715,41.3903859 C558.379802,41.3903859 555.516671,38.5272553 555.516671,34.9483417 C555.516671,31.3694284 558.379802,28.5062978 561.958715,28.5062978 Z" id="Shape"></path>
                </g>
            </g>
        </g>
    </g>
</svg>