<?xml version="1.0" encoding="UTF-8"?>
<svg width="17px" height="17px" viewBox="0 0 17 17" version="1.1" xmlns="http://www.w3.org/2000/svg" xmlns:xlink="http://www.w3.org/1999/xlink">
    <g id="home" stroke="none" stroke-width="1" fill="none" fill-rule="evenodd">
        <g id="Fluid---Desktop-Design-3" transform="translate(-648.000000, -7311.000000)" fill="#FFFFFF">
            <g id="Group-26" transform="translate(-1961.000000, 4753.000000)">
                <g id="footer-full" transform="translate(0.000000, 1241.000000)">
                    <g id="Newsletter">
                        <g id="icon-instagram-footer" transform="translate(2609.000000, 1317.000000)">
                            <path d="M8.6,0.7 C10.773,0.7 11.045,0.708 11.898,0.748 C12.75,0.787 13.33,0.922 13.84,1.12 C14.367,1.323 14.813,1.598 15.257,2.043 C15.702,2.487 15.976,2.934 16.18,3.46 C16.378,3.969 16.512,4.55 16.552,5.402 C16.59,6.255 16.6,6.527 16.6,8.7 C16.6,10.873 16.592,11.145 16.552,11.998 C16.513,12.85 16.378,13.43 16.18,13.94 C15.977,14.467 15.702,14.913 15.257,15.357 C14.813,15.802 14.366,16.076 13.84,16.28 C13.331,16.478 12.75,16.612 11.898,16.652 C11.045,16.69 10.773,16.7 8.6,16.7 C6.427,16.7 6.155,16.692 5.302,16.652 C4.45,16.613 3.87,16.478 3.36,16.28 C2.833,16.077 2.387,15.802 1.943,15.357 C1.498,14.913 1.224,14.466 1.02,13.94 C0.822,13.431 0.688,12.85 0.648,11.998 C0.61,11.145 0.6,10.873 0.6,8.7 C0.6,6.527 0.608,6.255 0.648,5.402 C0.687,4.55 0.822,3.97 1.02,3.46 C1.223,2.933 1.498,2.487 1.943,2.043 C2.387,1.598 2.834,1.324 3.36,1.12 C3.87,0.922 4.45,0.788 5.302,0.748 C6.155,0.71 6.427,0.7 8.6,0.7 Z M8.6,2.14 C6.464,2.14 6.21,2.15 5.367,2.188 C4.587,2.224 4.164,2.354 3.882,2.464 C3.508,2.609 3.242,2.782 2.962,3.062 C2.682,3.342 2.509,3.608 2.364,3.982 C2.254,4.264 2.124,4.687 2.088,5.467 C2.05,6.31 2.04,6.564 2.04,8.7 C2.04,10.836 2.05,11.09 2.087,11.932 C2.123,12.712 2.253,13.135 2.363,13.417 C2.508,13.791 2.681,14.057 2.961,14.337 C3.241,14.617 3.507,14.79 3.881,14.935 C4.163,15.045 4.586,15.175 5.366,15.211 C6.209,15.249 6.463,15.259 8.599,15.259 C10.735,15.259 10.988,15.25 11.832,15.212 C12.612,15.176 13.035,15.046 13.317,14.936 C13.691,14.791 13.957,14.618 14.237,14.338 C14.517,14.058 14.69,13.792 14.835,13.418 C14.945,13.136 15.075,12.713 15.111,11.933 C15.149,11.09 15.159,10.836 15.159,8.7 C15.159,6.564 15.15,6.311 15.112,5.467 C15.076,4.687 14.946,4.264 14.836,3.982 C14.691,3.608 14.518,3.342 14.238,3.062 C13.958,2.782 13.692,2.609 13.318,2.464 C13.036,2.354 12.613,2.224 11.833,2.188 C10.99,2.15 10.736,2.14 8.6,2.14 Z" id="Combined-Shape"></path>
                            <path d="M8.6,4.592 C10.868,4.592 12.708,6.43 12.708,8.7 C12.708,10.968 10.87,12.808 8.6,12.808 C6.332,12.808 4.492,10.97 4.492,8.7 C4.492,6.432 6.33,4.592 8.6,4.592 Z M8.6,11.367 C10.073,11.367 11.267,10.173 11.267,8.7 C11.267,7.227 10.073,6.033 8.6,6.033 C7.127,6.033 5.933,7.227 5.933,8.7 C5.933,10.173 7.127,11.367 8.6,11.367 Z" id="Combined-Shape"></path>
                            <path d="M13.83,4.43 C13.83,4.96 13.4,5.39 12.87,5.39 C12.34,5.39 11.91,4.96 11.91,4.43 C11.91,3.9 12.34,3.47 12.87,3.47 C13.4,3.47 13.83,3.9 13.83,4.43 Z" id="Path"></path>
                        </g>
                    </g>
                </g>
            </g>
        </g>
    </g>
</svg>